{
  "asset": {
    "generator": "Khronos glTF Blender I/O v3.6.27",
    "version": "2.0"
  },
  "scene": 0,
  "scenes": [
    {
      "name": "Scene",
      "nodes": [
        0
      ]
    }
  ],
  "nodes": [
    {
      "mesh": 0,
      "name": "Sphere"
    }
  ],
  "meshes": [
    {
      "name": "Sphere",
      "primitives": [
        {
          "attributes": {
            "POSITION": 0,
            "NORMAL": 1,
            "TEXCOORD_0": 2
          },
          "indices": 3
        }
      ]
    }
  ],
  "accessors": [
    {
      "bufferView": 0,
      "componentType": 5126,
      "count": 1285632,
      "max": [
        1.0017850399017334,
        1.001636266708374,
        1.0017850399017334
      ],
      "min": [
        -1.0017844438552856,
        -1.001636266708374,
        -1.001785397529602
      ],
      "type": "VEC3"
    },
    {
      "bufferView": 1,
      "componentType": 5126,
      "count": 1285632,
      "type": "VEC3"
    },
    {
      "bufferView": 2,
      "componentType": 5126,
      "count": 1285632,
      "type": "VEC2"
    },
    {
      "bufferView": 3,
      "componentType": 5125,
      "count": 1928448,
      "type": "SCALAR"
    }
  ],
  "bufferViews": [
    {
      "buffer": 0,
      "byteLength": 15427584,
      "byteOffset": 0,
      "target": 34962
    },
    {
      "buffer": 0,
      "byteLength": 15427584,
      "byteOffset": 15427584,
      "target": 34962
    },
    {
      "buffer": 0,
      "byteLength": 10285056,
      "byteOffset": 30855168,
      "target": 34962
    },
    {
      "buffer": 0,
      "byteLength": 7713792,
      "byteOffset": 41140224,
      "target": 34963
    }
  ],
  "buffers": [
    {
      "uri": "planet_wireframe_data.bin",
      "byteLength": 48854016
    }
  ]
}